<svg version="1.1" xmlns="http://www.w3.org/2000/svg" viewBox="0 0 236 236" preserveAspectRatio="xMinYMin meet"><rect width="100%" height="100%" fill="white" cx="0" cy="0"></rect><path d="M2,2l8,0 0,8 -8,0 0,-8z M10,2l8,0 0,8 -8,0 0,-8z M18,2l8,0 0,8 -8,0 0,-8z M26,2l8,0 0,8 -8,0 0,-8z M34,2l8,0 0,8 -8,0 0,-8z M42,2l8,0 0,8 -8,0 0,-8z M50,2l8,0 0,8 -8,0 0,-8z M66,2l8,0 0,8 -8,0 0,-8z M74,2l8,0 0,8 -8,0 0,-8z M82,2l8,0 0,8 -8,0 0,-8z M98,2l8,0 0,8 -8,0 0,-8z M106,2l8,0 0,8 -8,0 0,-8z M114,2l8,0 0,8 -8,0 0,-8z M122,2l8,0 0,8 -8,0 0,-8z M146,2l8,0 0,8 -8,0 0,-8z M178,2l8,0 0,8 -8,0 0,-8z M186,2l8,0 0,8 -8,0 0,-8z M194,2l8,0 0,8 -8,0 0,-8z M202,2l8,0 0,8 -8,0 0,-8z M210,2l8,0 0,8 -8,0 0,-8z M218,2l8,0 0,8 -8,0 0,-8z M226,2l8,0 0,8 -8,0 0,-8z M2,10l8,0 0,8 -8,0 0,-8z M50,10l8,0 0,8 -8,0 0,-8z M66,10l8,0 0,8 -8,0 0,-8z M74,10l8,0 0,8 -8,0 0,-8z M82,10l8,0 0,8 -8,0 0,-8z M90,10l8,0 0,8 -8,0 0,-8z M106,10l8,0 0,8 -8,0 0,-8z M114,10l8,0 0,8 -8,0 0,-8z M122,10l8,0 0,8 -8,0 0,-8z M138,10l8,0 0,8 -8,0 0,-8z M154,10l8,0 0,8 -8,0 0,-8z M162,10l8,0 0,8 -8,0 0,-8z M178,10l8,0 0,8 -8,0 0,-8z M226,10l8,0 0,8 -8,0 0,-8z M2,18l8,0 0,8 -8,0 0,-8z M18,18l8,0 0,8 -8,0 0,-8z M26,18l8,0 0,8 -8,0 0,-8z M34,18l8,0 0,8 -8,0 0,-8z M50,18l8,0 0,8 -8,0 0,-8z M66,18l8,0 0,8 -8,0 0,-8z M106,18l8,0 0,8 -8,0 0,-8z M114,18l8,0 0,8 -8,0 0,-8z M154,18l8,0 0,8 -8,0 0,-8z M162,18l8,0 0,8 -8,0 0,-8z M178,18l8,0 0,8 -8,0 0,-8z M194,18l8,0 0,8 -8,0 0,-8z M202,18l8,0 0,8 -8,0 0,-8z M210,18l8,0 0,8 -8,0 0,-8z M226,18l8,0 0,8 -8,0 0,-8z M2,26l8,0 0,8 -8,0 0,-8z M18,26l8,0 0,8 -8,0 0,-8z M26,26l8,0 0,8 -8,0 0,-8z M34,26l8,0 0,8 -8,0 0,-8z M50,26l8,0 0,8 -8,0 0,-8z M98,26l8,0 0,8 -8,0 0,-8z M114,26l8,0 0,8 -8,0 0,-8z M122,26l8,0 0,8 -8,0 0,-8z M138,26l8,0 0,8 -8,0 0,-8z M162,26l8,0 0,8 -8,0 0,-8z M178,26l8,0 0,8 -8,0 0,-8z M194,26l8,0 0,8 -8,0 0,-8z M202,26l8,0 0,8 -8,0 0,-8z M210,26l8,0 0,8 -8,0 0,-8z M226,26l8,0 0,8 -8,0 0,-8z M2,34l8,0 0,8 -8,0 0,-8z M18,34l8,0 0,8 -8,0 0,-8z M26,34l8,0 0,8 -8,0 0,-8z M34,34l8,0 0,8 -8,0 0,-8z M50,34l8,0 0,8 -8,0 0,-8z M66,34l8,0 0,8 -8,0 0,-8z M90,34l8,0 0,8 -8,0 0,-8z M98,34l8,0 0,8 -8,0 0,-8z M106,34l8,0 0,8 -8,0 0,-8z M122,34l8,0 0,8 -8,0 0,-8z M138,34l8,0 0,8 -8,0 0,-8z M154,34l8,0 0,8 -8,0 0,-8z M178,34l8,0 0,8 -8,0 0,-8z M194,34l8,0 0,8 -8,0 0,-8z M202,34l8,0 0,8 -8,0 0,-8z M210,34l8,0 0,8 -8,0 0,-8z M226,34l8,0 0,8 -8,0 0,-8z M2,42l8,0 0,8 -8,0 0,-8z M50,42l8,0 0,8 -8,0 0,-8z M82,42l8,0 0,8 -8,0 0,-8z M106,42l8,0 0,8 -8,0 0,-8z M114,42l8,0 0,8 -8,0 0,-8z M162,42l8,0 0,8 -8,0 0,-8z M178,42l8,0 0,8 -8,0 0,-8z M226,42l8,0 0,8 -8,0 0,-8z M2,50l8,0 0,8 -8,0 0,-8z M10,50l8,0 0,8 -8,0 0,-8z M18,50l8,0 0,8 -8,0 0,-8z M26,50l8,0 0,8 -8,0 0,-8z M34,50l8,0 0,8 -8,0 0,-8z M42,50l8,0 0,8 -8,0 0,-8z M50,50l8,0 0,8 -8,0 0,-8z M66,50l8,0 0,8 -8,0 0,-8z M82,50l8,0 0,8 -8,0 0,-8z M98,50l8,0 0,8 -8,0 0,-8z M114,50l8,0 0,8 -8,0 0,-8z M130,50l8,0 0,8 -8,0 0,-8z M146,50l8,0 0,8 -8,0 0,-8z M162,50l8,0 0,8 -8,0 0,-8z M178,50l8,0 0,8 -8,0 0,-8z M186,50l8,0 0,8 -8,0 0,-8z M194,50l8,0 0,8 -8,0 0,-8z M202,50l8,0 0,8 -8,0 0,-8z M210,50l8,0 0,8 -8,0 0,-8z M218,50l8,0 0,8 -8,0 0,-8z M226,50l8,0 0,8 -8,0 0,-8z M82,58l8,0 0,8 -8,0 0,-8z M114,58l8,0 0,8 -8,0 0,-8z M2,66l8,0 0,8 -8,0 0,-8z M26,66l8,0 0,8 -8,0 0,-8z M34,66l8,0 0,8 -8,0 0,-8z M42,66l8,0 0,8 -8,0 0,-8z M50,66l8,0 0,8 -8,0 0,-8z M58,66l8,0 0,8 -8,0 0,-8z M66,66l8,0 0,8 -8,0 0,-8z M82,66l8,0 0,8 -8,0 0,-8z M90,66l8,0 0,8 -8,0 0,-8z M106,66l8,0 0,8 -8,0 0,-8z M114,66l8,0 0,8 -8,0 0,-8z M122,66l8,0 0,8 -8,0 0,-8z M130,66l8,0 0,8 -8,0 0,-8z M138,66l8,0 0,8 -8,0 0,-8z M170,66l8,0 0,8 -8,0 0,-8z M194,66l8,0 0,8 -8,0 0,-8z M210,66l8,0 0,8 -8,0 0,-8z M218,66l8,0 0,8 -8,0 0,-8z M226,66l8,0 0,8 -8,0 0,-8z M2,74l8,0 0,8 -8,0 0,-8z M10,74l8,0 0,8 -8,0 0,-8z M18,74l8,0 0,8 -8,0 0,-8z M90,74l8,0 0,8 -8,0 0,-8z M98,74l8,0 0,8 -8,0 0,-8z M114,74l8,0 0,8 -8,0 0,-8z M138,74l8,0 0,8 -8,0 0,-8z M146,74l8,0 0,8 -8,0 0,-8z M154,74l8,0 0,8 -8,0 0,-8z M162,74l8,0 0,8 -8,0 0,-8z M186,74l8,0 0,8 -8,0 0,-8z M194,74l8,0 0,8 -8,0 0,-8z M210,74l8,0 0,8 -8,0 0,-8z M218,74l8,0 0,8 -8,0 0,-8z M2,82l8,0 0,8 -8,0 0,-8z M10,82l8,0 0,8 -8,0 0,-8z M34,82l8,0 0,8 -8,0 0,-8z M42,82l8,0 0,8 -8,0 0,-8z M50,82l8,0 0,8 -8,0 0,-8z M58,82l8,0 0,8 -8,0 0,-8z M114,82l8,0 0,8 -8,0 0,-8z M162,82l8,0 0,8 -8,0 0,-8z M170,82l8,0 0,8 -8,0 0,-8z M186,82l8,0 0,8 -8,0 0,-8z M194,82l8,0 0,8 -8,0 0,-8z M210,82l8,0 0,8 -8,0 0,-8z M2,90l8,0 0,8 -8,0 0,-8z M18,90l8,0 0,8 -8,0 0,-8z M42,90l8,0 0,8 -8,0 0,-8z M58,90l8,0 0,8 -8,0 0,-8z M74,90l8,0 0,8 -8,0 0,-8z M82,90l8,0 0,8 -8,0 0,-8z M114,90l8,0 0,8 -8,0 0,-8z M122,90l8,0 0,8 -8,0 0,-8z M138,90l8,0 0,8 -8,0 0,-8z M146,90l8,0 0,8 -8,0 0,-8z M170,90l8,0 0,8 -8,0 0,-8z M186,90l8,0 0,8 -8,0 0,-8z M202,90l8,0 0,8 -8,0 0,-8z M226,90l8,0 0,8 -8,0 0,-8z M2,98l8,0 0,8 -8,0 0,-8z M18,98l8,0 0,8 -8,0 0,-8z M26,98l8,0 0,8 -8,0 0,-8z M50,98l8,0 0,8 -8,0 0,-8z M58,98l8,0 0,8 -8,0 0,-8z M66,98l8,0 0,8 -8,0 0,-8z M74,98l8,0 0,8 -8,0 0,-8z M82,98l8,0 0,8 -8,0 0,-8z M106,98l8,0 0,8 -8,0 0,-8z M114,98l8,0 0,8 -8,0 0,-8z M154,98l8,0 0,8 -8,0 0,-8z M178,98l8,0 0,8 -8,0 0,-8z M186,98l8,0 0,8 -8,0 0,-8z M226,98l8,0 0,8 -8,0 0,-8z M2,106l8,0 0,8 -8,0 0,-8z M18,106l8,0 0,8 -8,0 0,-8z M26,106l8,0 0,8 -8,0 0,-8z M34,106l8,0 0,8 -8,0 0,-8z M58,106l8,0 0,8 -8,0 0,-8z M66,106l8,0 0,8 -8,0 0,-8z M90,106l8,0 0,8 -8,0 0,-8z M138,106l8,0 0,8 -8,0 0,-8z M146,106l8,0 0,8 -8,0 0,-8z M178,106l8,0 0,8 -8,0 0,-8z M186,106l8,0 0,8 -8,0 0,-8z M194,106l8,0 0,8 -8,0 0,-8z M202,106l8,0 0,8 -8,0 0,-8z M210,106l8,0 0,8 -8,0 0,-8z M218,106l8,0 0,8 -8,0 0,-8z M226,106l8,0 0,8 -8,0 0,-8z M2,114l8,0 0,8 -8,0 0,-8z M10,114l8,0 0,8 -8,0 0,-8z M18,114l8,0 0,8 -8,0 0,-8z M26,114l8,0 0,8 -8,0 0,-8z M50,114l8,0 0,8 -8,0 0,-8z M58,114l8,0 0,8 -8,0 0,-8z M74,114l8,0 0,8 -8,0 0,-8z M90,114l8,0 0,8 -8,0 0,-8z M114,114l8,0 0,8 -8,0 0,-8z M122,114l8,0 0,8 -8,0 0,-8z M154,114l8,0 0,8 -8,0 0,-8z M186,114l8,0 0,8 -8,0 0,-8z M210,114l8,0 0,8 -8,0 0,-8z M226,114l8,0 0,8 -8,0 0,-8z M10,122l8,0 0,8 -8,0 0,-8z M26,122l8,0 0,8 -8,0 0,-8z M34,122l8,0 0,8 -8,0 0,-8z M42,122l8,0 0,8 -8,0 0,-8z M66,122l8,0 0,8 -8,0 0,-8z M98,122l8,0 0,8 -8,0 0,-8z M106,122l8,0 0,8 -8,0 0,-8z M114,122l8,0 0,8 -8,0 0,-8z M130,122l8,0 0,8 -8,0 0,-8z M146,122l8,0 0,8 -8,0 0,-8z M154,122l8,0 0,8 -8,0 0,-8z M162,122l8,0 0,8 -8,0 0,-8z M170,122l8,0 0,8 -8,0 0,-8z M194,122l8,0 0,8 -8,0 0,-8z M210,122l8,0 0,8 -8,0 0,-8z M226,122l8,0 0,8 -8,0 0,-8z M2,130l8,0 0,8 -8,0 0,-8z M18,130l8,0 0,8 -8,0 0,-8z M26,130l8,0 0,8 -8,0 0,-8z M34,130l8,0 0,8 -8,0 0,-8z M42,130l8,0 0,8 -8,0 0,-8z M50,130l8,0 0,8 -8,0 0,-8z M58,130l8,0 0,8 -8,0 0,-8z M90,130l8,0 0,8 -8,0 0,-8z M98,130l8,0 0,8 -8,0 0,-8z M122,130l8,0 0,8 -8,0 0,-8z M154,130l8,0 0,8 -8,0 0,-8z M162,130l8,0 0,8 -8,0 0,-8z M202,130l8,0 0,8 -8,0 0,-8z M2,138l8,0 0,8 -8,0 0,-8z M10,138l8,0 0,8 -8,0 0,-8z M18,138l8,0 0,8 -8,0 0,-8z M58,138l8,0 0,8 -8,0 0,-8z M74,138l8,0 0,8 -8,0 0,-8z M82,138l8,0 0,8 -8,0 0,-8z M146,138l8,0 0,8 -8,0 0,-8z M154,138l8,0 0,8 -8,0 0,-8z M162,138l8,0 0,8 -8,0 0,-8z M170,138l8,0 0,8 -8,0 0,-8z M194,138l8,0 0,8 -8,0 0,-8z M210,138l8,0 0,8 -8,0 0,-8z M218,138l8,0 0,8 -8,0 0,-8z M2,146l8,0 0,8 -8,0 0,-8z M10,146l8,0 0,8 -8,0 0,-8z M34,146l8,0 0,8 -8,0 0,-8z M42,146l8,0 0,8 -8,0 0,-8z M50,146l8,0 0,8 -8,0 0,-8z M66,146l8,0 0,8 -8,0 0,-8z M90,146l8,0 0,8 -8,0 0,-8z M98,146l8,0 0,8 -8,0 0,-8z M106,146l8,0 0,8 -8,0 0,-8z M114,146l8,0 0,8 -8,0 0,-8z M130,146l8,0 0,8 -8,0 0,-8z M154,146l8,0 0,8 -8,0 0,-8z M162,146l8,0 0,8 -8,0 0,-8z M178,146l8,0 0,8 -8,0 0,-8z M194,146l8,0 0,8 -8,0 0,-8z M202,146l8,0 0,8 -8,0 0,-8z M226,146l8,0 0,8 -8,0 0,-8z M2,154l8,0 0,8 -8,0 0,-8z M10,154l8,0 0,8 -8,0 0,-8z M18,154l8,0 0,8 -8,0 0,-8z M66,154l8,0 0,8 -8,0 0,-8z M74,154l8,0 0,8 -8,0 0,-8z M82,154l8,0 0,8 -8,0 0,-8z M106,154l8,0 0,8 -8,0 0,-8z M122,154l8,0 0,8 -8,0 0,-8z M130,154l8,0 0,8 -8,0 0,-8z M178,154l8,0 0,8 -8,0 0,-8z M202,154l8,0 0,8 -8,0 0,-8z M210,154l8,0 0,8 -8,0 0,-8z M2,162l8,0 0,8 -8,0 0,-8z M10,162l8,0 0,8 -8,0 0,-8z M26,162l8,0 0,8 -8,0 0,-8z M34,162l8,0 0,8 -8,0 0,-8z M42,162l8,0 0,8 -8,0 0,-8z M50,162l8,0 0,8 -8,0 0,-8z M58,162l8,0 0,8 -8,0 0,-8z M82,162l8,0 0,8 -8,0 0,-8z M90,162l8,0 0,8 -8,0 0,-8z M106,162l8,0 0,8 -8,0 0,-8z M138,162l8,0 0,8 -8,0 0,-8z M162,162l8,0 0,8 -8,0 0,-8z M170,162l8,0 0,8 -8,0 0,-8z M178,162l8,0 0,8 -8,0 0,-8z M186,162l8,0 0,8 -8,0 0,-8z M194,162l8,0 0,8 -8,0 0,-8z M202,162l8,0 0,8 -8,0 0,-8z M210,162l8,0 0,8 -8,0 0,-8z M218,162l8,0 0,8 -8,0 0,-8z M66,170l8,0 0,8 -8,0 0,-8z M74,170l8,0 0,8 -8,0 0,-8z M98,170l8,0 0,8 -8,0 0,-8z M106,170l8,0 0,8 -8,0 0,-8z M130,170l8,0 0,8 -8,0 0,-8z M146,170l8,0 0,8 -8,0 0,-8z M162,170l8,0 0,8 -8,0 0,-8z M194,170l8,0 0,8 -8,0 0,-8z M202,170l8,0 0,8 -8,0 0,-8z M2,178l8,0 0,8 -8,0 0,-8z M10,178l8,0 0,8 -8,0 0,-8z M18,178l8,0 0,8 -8,0 0,-8z M26,178l8,0 0,8 -8,0 0,-8z M34,178l8,0 0,8 -8,0 0,-8z M42,178l8,0 0,8 -8,0 0,-8z M50,178l8,0 0,8 -8,0 0,-8z M66,178l8,0 0,8 -8,0 0,-8z M74,178l8,0 0,8 -8,0 0,-8z M82,178l8,0 0,8 -8,0 0,-8z M90,178l8,0 0,8 -8,0 0,-8z M98,178l8,0 0,8 -8,0 0,-8z M106,178l8,0 0,8 -8,0 0,-8z M122,178l8,0 0,8 -8,0 0,-8z M130,178l8,0 0,8 -8,0 0,-8z M138,178l8,0 0,8 -8,0 0,-8z M146,178l8,0 0,8 -8,0 0,-8z M154,178l8,0 0,8 -8,0 0,-8z M162,178l8,0 0,8 -8,0 0,-8z M178,178l8,0 0,8 -8,0 0,-8z M194,178l8,0 0,8 -8,0 0,-8z M202,178l8,0 0,8 -8,0 0,-8z M2,186l8,0 0,8 -8,0 0,-8z M50,186l8,0 0,8 -8,0 0,-8z M66,186l8,0 0,8 -8,0 0,-8z M74,186l8,0 0,8 -8,0 0,-8z M106,186l8,0 0,8 -8,0 0,-8z M130,186l8,0 0,8 -8,0 0,-8z M138,186l8,0 0,8 -8,0 0,-8z M162,186l8,0 0,8 -8,0 0,-8z M194,186l8,0 0,8 -8,0 0,-8z M218,186l8,0 0,8 -8,0 0,-8z M226,186l8,0 0,8 -8,0 0,-8z M2,194l8,0 0,8 -8,0 0,-8z M18,194l8,0 0,8 -8,0 0,-8z M26,194l8,0 0,8 -8,0 0,-8z M34,194l8,0 0,8 -8,0 0,-8z M50,194l8,0 0,8 -8,0 0,-8z M66,194l8,0 0,8 -8,0 0,-8z M82,194l8,0 0,8 -8,0 0,-8z M90,194l8,0 0,8 -8,0 0,-8z M106,194l8,0 0,8 -8,0 0,-8z M122,194l8,0 0,8 -8,0 0,-8z M130,194l8,0 0,8 -8,0 0,-8z M154,194l8,0 0,8 -8,0 0,-8z M162,194l8,0 0,8 -8,0 0,-8z M170,194l8,0 0,8 -8,0 0,-8z M178,194l8,0 0,8 -8,0 0,-8z M186,194l8,0 0,8 -8,0 0,-8z M194,194l8,0 0,8 -8,0 0,-8z M202,194l8,0 0,8 -8,0 0,-8z M2,202l8,0 0,8 -8,0 0,-8z M18,202l8,0 0,8 -8,0 0,-8z M26,202l8,0 0,8 -8,0 0,-8z M34,202l8,0 0,8 -8,0 0,-8z M50,202l8,0 0,8 -8,0 0,-8z M66,202l8,0 0,8 -8,0 0,-8z M90,202l8,0 0,8 -8,0 0,-8z M98,202l8,0 0,8 -8,0 0,-8z M114,202l8,0 0,8 -8,0 0,-8z M130,202l8,0 0,8 -8,0 0,-8z M146,202l8,0 0,8 -8,0 0,-8z M154,202l8,0 0,8 -8,0 0,-8z M170,202l8,0 0,8 -8,0 0,-8z M218,202l8,0 0,8 -8,0 0,-8z M2,210l8,0 0,8 -8,0 0,-8z M18,210l8,0 0,8 -8,0 0,-8z M26,210l8,0 0,8 -8,0 0,-8z M34,210l8,0 0,8 -8,0 0,-8z M50,210l8,0 0,8 -8,0 0,-8z M90,210l8,0 0,8 -8,0 0,-8z M98,210l8,0 0,8 -8,0 0,-8z M106,210l8,0 0,8 -8,0 0,-8z M114,210l8,0 0,8 -8,0 0,-8z M130,210l8,0 0,8 -8,0 0,-8z M154,210l8,0 0,8 -8,0 0,-8z M170,210l8,0 0,8 -8,0 0,-8z M186,210l8,0 0,8 -8,0 0,-8z M194,210l8,0 0,8 -8,0 0,-8z M210,210l8,0 0,8 -8,0 0,-8z M218,210l8,0 0,8 -8,0 0,-8z M226,210l8,0 0,8 -8,0 0,-8z M2,218l8,0 0,8 -8,0 0,-8z M50,218l8,0 0,8 -8,0 0,-8z M74,218l8,0 0,8 -8,0 0,-8z M90,218l8,0 0,8 -8,0 0,-8z M122,218l8,0 0,8 -8,0 0,-8z M146,218l8,0 0,8 -8,0 0,-8z M154,218l8,0 0,8 -8,0 0,-8z M170,218l8,0 0,8 -8,0 0,-8z M178,218l8,0 0,8 -8,0 0,-8z M194,218l8,0 0,8 -8,0 0,-8z M202,218l8,0 0,8 -8,0 0,-8z M210,218l8,0 0,8 -8,0 0,-8z M226,218l8,0 0,8 -8,0 0,-8z M2,226l8,0 0,8 -8,0 0,-8z M10,226l8,0 0,8 -8,0 0,-8z M18,226l8,0 0,8 -8,0 0,-8z M26,226l8,0 0,8 -8,0 0,-8z M34,226l8,0 0,8 -8,0 0,-8z M42,226l8,0 0,8 -8,0 0,-8z M50,226l8,0 0,8 -8,0 0,-8z M66,226l8,0 0,8 -8,0 0,-8z M98,226l8,0 0,8 -8,0 0,-8z M106,226l8,0 0,8 -8,0 0,-8z M138,226l8,0 0,8 -8,0 0,-8z M146,226l8,0 0,8 -8,0 0,-8z M154,226l8,0 0,8 -8,0 0,-8z M162,226l8,0 0,8 -8,0 0,-8z M194,226l8,0 0,8 -8,0 0,-8z " stroke="transparent" fill="#0b2e22"></path></svg>